PathFileType	4	(X/Y/Z)	D:\TRACE\v60_Jaco2_6-2-23\JustArmDRS_Motion3_3-platform.trc
DataRate	CameraRate	NumFrames	NumMarkers	Units	OrigDataRate	OrigDataStartFrame	OrigNumFrames
100.00	100.00	      61	5	mm	100.00	3501	      7000
Frame#	Time	Left_Front			Right_Front			Left_Aft			Right_Aft			Post			
		X1	Y1	Z1	X2	Y2	Z2	X3	Y3	Z3	X4	Y4	Z4	X5	Y5	Z5	

3501	35.000	-750.62720	9.32256	-650.64484	820.03107	7.70756	-628.03278	-681.97467	11.24228	483.40201	732.50140	8.96578	589.03723	45.09465	1306.80945	-964.67328	
3502	35.010	-750.70380	9.78442	-650.51849	819.81665	8.33022	-627.91040	-682.32117	10.86719	483.50101	732.35620	8.50184	589.31635	44.91576	1307.45447	-963.59998	
3503	35.020	-750.78589	10.22598	-650.13696	819.62964	8.97397	-627.73181	-682.58075	10.45792	483.63571	732.12305	8.10682	589.41760	44.71838	1308.52588	-962.20685	
3504	35.030	-751.04205	10.86939	-649.91400	819.45740	9.53294	-627.59094	-682.68695	9.90843	483.79922	732.00848	7.79143	589.46417	44.62853	1309.28931	-960.96118	
3505	35.040	-751.32239	11.31658	-649.90936	819.02008	10.14546	-627.51703	-682.80127	9.53603	483.87625	731.87878	7.27353	589.53741	44.41296	1310.24451	-959.75787	
3506	35.050	-751.79944	12.08106	-650.08160	818.83368	10.79089	-627.29181	-682.97693	9.05240	484.07809	731.38989	6.49358	589.78668	43.93270	1311.15149	-958.32483	
3507	35.060	-751.95966	12.68984	-650.09583	818.55615	11.39904	-627.09821	-683.19989	8.54476	484.33145	731.08276	6.03225	589.95398	43.75123	1312.13000	-956.76392	
3508	35.070	-752.39557	13.66210	-649.83337	818.22937	12.05366	-626.92981	-683.62677	8.25058	484.41779	730.89819	5.57437	590.00897	43.13149	1312.98645	-955.45215	
3509	35.080	-752.65625	14.40227	-649.47333	818.00116	12.63598	-626.75281	-683.92670	7.88898	484.41467	730.79602	5.19991	590.25568	42.75543	1313.86707	-953.49707	
3510	35.090	-753.08801	14.83132	-649.16016	817.78284	13.27148	-626.62744	-684.12524	7.35855	484.58224	730.38391	4.48933	590.43683	42.69526	1314.75818	-951.98950	
3511	35.100	-753.04034	15.18590	-649.06543	817.63757	13.90195	-626.44495	-684.44470	6.90866	484.66068	730.21271	4.02985	590.48029	42.33842	1315.57153	-950.72766	
3512	35.110	-753.25861	15.76198	-648.96436	817.32434	14.54504	-626.31097	-684.73523	6.60787	484.57410	730.03003	3.61279	590.62341	42.34676	1316.61963	-949.16779	
3513	35.120	-753.50421	17.05839	-649.06293	817.00360	15.15354	-626.12958	-685.00989	5.94197	484.94788	729.43176	3.03746	590.78442	41.37474	1317.44629	-947.80988	
3514	35.130	-753.57751	17.58525	-648.73492	816.66412	15.74864	-626.01764	-685.28046	5.55731	485.28064	728.90875	2.33470	591.00061	41.15186	1318.65698	-946.60400	
3515	35.140	-754.06110	18.00195	-648.30426	816.36108	16.42913	-625.78693	-685.58765	5.26451	485.35416	728.87714	1.85303	591.21100	40.85447	1319.39526	-945.09613	
3516	35.150	-754.53607	18.45495	-648.18347	816.07129	17.12738	-625.72040	-686.11029	4.83302	485.45969	728.55853	1.41571	591.35901	40.56937	1320.29370	-943.86975	
3517	35.160	-755.09229	19.16058	-648.09344	815.77698	17.78035	-625.62708	-686.37225	4.33858	485.66879	728.36542	1.01318	591.36255	40.54671	1321.29895	-942.76251	
3518	35.170	-755.37073	19.75257	-648.12665	815.30505	18.36328	-625.36322	-686.62067	3.88828	485.77554	727.90894	0.47587	591.56763	40.21441	1322.50989	-941.14551	
3519	35.180	-755.80756	20.54890	-648.05060	814.81970	18.98570	-625.23602	-686.98669	3.35293	485.92575	727.40131	-0.20752	591.65216	39.83599	1323.25024	-939.84137	
3520	35.190	-755.99646	21.16116	-648.17371	814.38531	19.55132	-625.09479	-687.36041	2.82553	485.95654	727.03009	-0.70791	591.92944	38.98154	1324.24768	-938.21222	
3521	35.200	-756.22003	21.71962	-648.08252	814.05200	20.24749	-624.86230	-687.79858	2.59202	486.05685	726.70557	-1.23640	592.07251	38.82555	1325.19214	-936.79132	
3522	35.210	-756.75433	22.38250	-647.50397	813.63196	20.89436	-624.70929	-688.16864	2.14322	486.27072	726.42950	-1.79785	592.16882	38.43377	1325.94043	-935.40698	
3523	35.220	-757.12201	22.87736	-647.23846	813.38318	21.60118	-624.58301	-688.61469	1.61725	486.47757	726.03503	-2.11447	592.12976	37.98240	1327.14551	-933.89380	
3524	35.230	-757.59875	23.57709	-646.89990	812.99585	22.20878	-624.41809	-688.94287	1.19866	486.78262	725.47119	-2.79472	592.39081	37.75299	1327.73206	-932.29675	
3525	35.240	-757.96545	24.13628	-646.66974	812.61627	22.78865	-624.37561	-689.42194	0.70147	486.83578	725.10382	-3.28780	592.64130	37.13206	1328.66528	-930.68073	
3526	35.250	-758.67169	24.78617	-646.87506	812.07721	23.34459	-624.14380	-689.81482	0.24359	486.90573	724.74115	-3.65423	592.58826	36.61885	1329.43420	-929.39893	
3527	35.260	-759.08026	25.56604	-646.93439	811.50830	23.87624	-623.96057	-690.28351	0.03970	486.98184	724.18213	-4.27164	592.52490	36.34858	1330.45166	-927.75903	
3528	35.270	-758.95007	26.08000	-646.53961	811.01593	24.55424	-623.85333	-690.76538	-0.33291	487.16171	723.84131	-4.73451	592.88751	35.88184	1331.38513	-926.64160	
3529	35.280	-759.71552	26.93460	-646.60553	810.66510	25.17665	-623.68286	-691.28119	-0.82916	487.21173	723.45612	-5.20575	593.16907	35.21463	1332.17285	-925.52887	
3530	35.290	-760.33606	27.54917	-646.05414	810.27972	25.81525	-623.55670	-691.64465	-1.19059	487.27289	722.79034	-6.06467	593.05829	34.75641	1332.95349	-924.29242	
3531	35.300	-760.66760	27.92214	-645.82690	809.82245	26.45948	-623.30792	-692.00562	-1.70390	487.42325	722.52417	-6.39314	593.32440	34.46483	1333.87708	-923.14148	
3532	35.310	-761.00592	28.34750	-645.65430	809.38690	26.91955	-623.29535	-692.44305	-2.11357	487.68210	722.00745	-6.84187	593.42944	34.05481	1334.68176	-921.74359	
3533	35.320	-761.54321	29.16324	-645.71936	808.82031	27.52534	-623.16101	-693.03625	-2.56820	487.92819	721.59558	-7.26011	593.50806	33.33603	1335.54968	-920.75574	
3534	35.330	-761.96478	29.60060	-645.88623	808.26910	28.06304	-622.93042	-693.61407	-2.83660	487.93530	720.91943	-7.72270	593.58331	32.60046	1336.43628	-919.25952	
3535	35.340	-762.92365	30.49943	-645.62152	807.72418	28.58321	-622.83698	-694.16010	-3.27272	488.13110	720.37195	-8.25671	593.84326	32.47427	1337.05652	-917.91986	
3536	35.350	-763.38409	30.93437	-645.30890	807.20697	29.20006	-622.66907	-694.49738	-3.63828	488.09747	720.00824	-8.53506	593.94006	32.00258	1337.94360	-916.59930	
3537	35.360	-763.72559	31.34637	-645.11243	806.76624	29.72850	-622.55072	-695.01465	-3.96069	488.20657	719.83844	-8.90989	593.92926	31.26509	1338.57288	-915.24622	
3538	35.370	-764.06799	31.72530	-644.84686	806.35461	30.20548	-622.38702	-695.51477	-4.45818	488.44547	718.84406	-9.48493	593.89453	30.78417	1339.40271	-913.87781	
3539	35.380	-764.28790	32.20005	-644.28180	805.75317	30.72594	-622.18701	-696.09961	-4.69800	488.59219	718.19330	-10.07052	593.94586	30.17947	1340.23730	-912.53809	
3540	35.390	-765.08069	32.92023	-644.66223	805.21967	31.16186	-622.10016	-696.73981	-5.00212	488.61945	717.65930	-10.47402	594.26599	29.83446	1340.86719	-911.47607	
3541	35.400	-765.93311	33.70612	-644.76666	804.52258	31.63099	-622.01837	-697.26794	-5.39897	488.70380	717.09082	-10.82432	594.55048	29.04661	1341.61755	-910.29309	
3542	35.410	-766.63495	34.26365	-644.74854	803.82062	32.05449	-621.88593	-697.82361	-5.80516	488.87399	716.62714	-11.24860	594.65552	28.51595	1342.13599	-909.45349	
3543	35.420	-767.12598	34.60824	-644.62494	803.45801	32.52671	-621.76221	-698.43359	-6.08306	488.77588	716.05774	-11.62927	594.64093	28.07566	1343.00635	-908.30212	
3544	35.430	-767.42426	34.88457	-644.35162	802.89502	33.06895	-621.53748	-698.93073	-6.47876	488.99802	715.43005	-11.98810	594.73322	27.40989	1343.55664	-907.25183	
3545	35.440	-767.85248	35.30037	-644.19910	802.36737	33.59535	-621.48401	-699.48138	-6.75280	489.12228	715.35504	-12.28504	594.65735	27.18366	1344.25220	-906.69574	
3546	35.450	-768.58722	35.73543	-643.93158	801.81659	34.05694	-621.34650	-700.22516	-7.01615	489.11444	714.64301	-12.69084	594.95148	26.33528	1345.18091	-905.54407	
3547	35.460	-769.43073	36.20674	-643.78973	801.16302	34.43063	-621.13800	-700.79730	-7.34765	489.20364	713.62811	-13.28421	594.96338	25.50628	1345.60522	-904.63159	
3548	35.470	-769.97021	36.57821	-643.95532	800.61243	34.83873	-621.07507	-701.22162	-7.67676	489.41049	712.86224	-13.60460	595.05298	25.13778	1345.74060	-904.15875	
3549	35.480	-770.50983	36.88213	-643.93622	800.00702	35.14756	-620.93182	-701.99139	-7.83152	489.42300	712.57550	-13.68862	595.11279	24.35472	1346.63489	-902.85449	
3550	35.490	-771.01654	37.44576	-643.68976	799.31024	35.53473	-620.84320	-702.63617	-7.98009	489.45639	712.05969	-14.01303	595.06732	23.55144	1347.17200	-902.01337	
3551	35.500	-771.84174	38.12843	-643.31781	798.62598	35.94275	-620.77588	-703.34308	-8.23816	489.53143	711.03412	-14.22208	595.40552	23.04597	1347.69128	-901.07935	
3552	35.510	-772.49237	38.46828	-643.36053	797.95221	36.30739	-620.71881	-703.74896	-8.65835	489.55524	710.39856	-14.69722	595.31451	22.34330	1348.21777	-899.95044	
3553	35.520	-773.06390	38.73330	-643.44946	797.26013	36.72259	-620.62640	-704.61139	-8.89576	489.54868	709.86310	-14.97558	595.31274	22.15690	1348.80139	-899.37799	
3554	35.530	-773.79071	38.99791	-643.46204	796.70453	36.98903	-620.64832	-705.24866	-9.16136	489.66370	709.48376	-15.15832	595.36035	21.18581	1349.32715	-898.18665	
3555	35.540	-774.14819	39.29997	-642.98822	795.89514	37.34421	-620.46790	-705.79230	-9.31738	489.76373	708.39362	-15.45633	595.42133	20.43413	1349.79419	-897.46179	
3556	35.550	-775.14880	39.65278	-643.11963	795.42139	37.63442	-620.46289	-706.46039	-9.62233	489.81711	707.75598	-15.56626	595.60175	20.11921	1349.89355	-896.85388	
3557	35.560	-775.85126	39.93922	-643.24512	794.70386	37.94654	-620.39020	-707.13629	-9.87839	489.91769	706.83862	-16.07838	595.70563	19.13404	1350.38086	-896.16949	
3558	35.570	-776.30243	39.83280	-642.75946	794.04907	38.25164	-620.22107	-707.86127	-9.97593	490.01791	705.96368	-16.44963	595.69989	18.50137	1350.81689	-895.57123	
3559	35.580	-777.16791	40.16028	-643.11511	793.38257	38.49101	-620.04962	-708.52429	-10.23566	490.01547	706.15295	-16.58677	595.63971	17.89619	1351.26184	-895.09766	
3560	35.590	-777.72382	40.35677	-642.98773	792.75201	38.58920	-619.96832	-709.25403	-10.36764	490.05716	705.81311	-16.69081	595.58691	16.89385	1351.54675	-894.57385	
3561	35.600	-778.64069	40.65162	-642.76288	791.98804	38.86887	-620.01276	-709.88593	-10.45280	489.93869	704.92786	-16.93580	595.60608	16.54805	1351.68347	-894.30200	
